# xmcd CD database file
#
# Track frame offsets:
#	150
#	19428
#	46346
#	68579
#	96783
#	109291
#	127945
#	150136
#	166737
#
# Disc length: 2447 seconds
#
# Revision: 0
# Processed by: cddbd v1.5.2PL0 Copyright (c) Steve Scherf et al.
# Submitted via: CDex 1.70beta2
#
DISCID=64098d09
DTITLE=Walter Strerath - Trio Quartet Quintet
DYEAR=1960
DGENRE=Jazz
TTITLE0=New Gospel
TTITLE1=Walz for Ellen
TTITLE2=The Unknown
TTITLE3=Dance of Rosa
TTITLE4=Speed-Up
TTITLE5=Watermelon Girl
TTITLE6=Little Ya-Ya
TTITLE7=Rainy day
TTITLE8=3/4 in Minor
EXTD=YEAR: 1960
EXTT0=
EXTT1=
EXTT2=
EXTT3=
EXTT4=
EXTT5=
EXTT6=
EXTT7=
EXTT8=
PLAYORDER=
